HIERARCHY
ROOT Hips
{
	OFFSET 0.000000 0.000000 0.000000 
	CHANNELS 6 Xposition Yposition Zposition Zrotation Yrotation Xrotation
	JOINT LeftUpLeg
	{
		OFFSET 1.363060 -1.794630 0.839290 
		CHANNELS 3 Zrotation Yrotation Xrotation
		JOINT LeftLeg
		{
			OFFSET 2.448110 -6.726130 0.000000 
			CHANNELS 3 Zrotation Yrotation Xrotation
			JOINT LeftFoot
			{
				OFFSET 2.562200 -7.039590 0.000000 
				CHANNELS 3 Zrotation Yrotation Xrotation
				JOINT LeftToeBase
				{
					OFFSET 0.157640 -0.433110 2.322550 
					CHANNELS 3 Zrotation Yrotation Xrotation
					End Site
					{
						OFFSET 0.000000 0.000000 0.000000 
					}
				}
			}
		}
	}
	JOINT RightUpLeg
	{
		OFFSET -1.305520 -1.794630 0.839290 
		CHANNELS 3 Zrotation Yrotation Xrotation
		JOINT RightLeg
		{
			OFFSET -2.542530 -6.985550 0.000000 
			CHANNELS 3 Zrotation Yrotation Xrotation
			JOINT RightFoot
			{
				OFFSET -2.568260 -7.056230 0.000000 
				CHANNELS 3 Zrotation Yrotation Xrotation
				JOINT RightToeBase
				{
					OFFSET -0.164730 -0.452590 2.363150 
					CHANNELS 3 Zrotation Yrotation Xrotation
					End Site
					{
						OFFSET 0.000000 0.000000 0.000000 
					}
				}
			}
		}
	}
	JOINT Spine
	{
		OFFSET 0.028270 2.035590 -0.193380 
		CHANNELS 3 Zrotation Yrotation Xrotation
		JOINT Spine1
		{
			OFFSET 0.056720 2.048850 -0.042750 
			CHANNELS 3 Zrotation Yrotation Xrotation
			JOINT Neck1
			{
				OFFSET -0.054170 1.746240 0.172020 
				CHANNELS 3 Zrotation Yrotation Xrotation
				JOINT Head
				{
					OFFSET 0.104070 1.761360 -0.123970 
					CHANNELS 3 Zrotation Yrotation Xrotation
					End Site
					{
						OFFSET 0.000000 0.000000 0.000000 
					}
				}
			}
			JOINT LeftArm
			{
				OFFSET 3.362410 1.200890 -0.311210 
				CHANNELS 3 Zrotation Yrotation Xrotation
				JOINT LeftForeArm
				{
					OFFSET 4.983000 -0.000000 -0.000000 
					CHANNELS 3 Zrotation Yrotation Xrotation
					JOINT LeftHand
					{
						OFFSET 3.483560 -0.000000 -0.000000 
						CHANNELS 3 Zrotation Yrotation Xrotation
						JOINT LeftHandIndex1
						{
							OFFSET 0.715260 -0.000000 -0.000000 
							CHANNELS 3 Zrotation Yrotation Xrotation
							End Site
							{
								OFFSET 0.000000 0.000000 0.000000 
							}
						}
					}
				}
			}
			JOINT RightArm
			{
				OFFSET -3.136600 1.374050 -0.404650 
				CHANNELS 3 Zrotation Yrotation Xrotation
				JOINT RightForeArm
				{
					OFFSET -5.241900 -0.000000 -0.000000 
					CHANNELS 3 Zrotation Yrotation Xrotation
					JOINT RightHand
					{
						OFFSET -3.444170 -0.000000 -0.000000 
						CHANNELS 3 Zrotation Yrotation Xrotation
						JOINT RightHandIndex1
						{
							OFFSET -0.622530 -0.000000 -0.000000 
							CHANNELS 3 Zrotation Yrotation Xrotation
							End Site
							{
								OFFSET 0.000000 0.000000 0.000000 
							}
						}
					}
				}
			}
		}
	}
}
MOTION
Frames: 15
Frame Time: 0.041667
10.015890 17.985335 26.855814 -177.440044 -1.765958 -178.722262 -16.974353 -16.308542 -4.939291 -2.384753 7.540969 22.112507 -2.887460 11.110087 -6.790096 1.626400 -8.040200 -22.836300 30.964422 13.640663 1.486061 3.126392 -4.926121 16.986737 5.859524 -24.978510 -14.198284 -0.002800 0.341300 -0.937800 3.499003 2.002533 4.306078 -5.880378 0.662402 -13.727030 20.310760 -7.895686 11.543805 4.362500 -3.282600 4.586300 -90.419912 7.982472 27.293563 23.915674 -23.278120 -5.829409 1.501832 0.667518 15.758054 -7.125000 0.000000 0.000000 89.764449 -6.550637 35.799700 -22.347605 25.054302 -6.029808 0.750877 -0.527249 17.403561 7.125000 0.000000 0.000000 
10.018555 17.984176 26.854539 -177.410614 -1.794284 -178.673208 -16.935965 -16.352765 -4.957925 -2.388366 7.534252 22.090724 -2.916634 11.182801 -6.760912 1.714600 -8.244500 -23.459300 31.000670 13.698306 1.442095 3.124624 -4.944459 17.014932 5.886876 -25.075012 -14.204376 -0.006000 0.501800 -1.378800 3.653495 1.901050 4.316954 -5.840888 0.619875 -13.691571 20.358481 -7.888751 11.554991 4.392300 -3.278700 4.597200 -90.508346 7.839670 27.241824 23.946939 -23.311588 -5.834243 1.497197 0.663528 15.829037 -7.125000 0.000000 0.000000 89.637359 -6.428457 36.013800 -22.244563 24.926158 -5.979737 0.757995 -0.531466 17.404966 7.125000 0.000000 0.000000 
10.017976 17.985451 26.850483 -177.413207 -1.664758 -178.701259 -16.947854 -16.315111 -4.896589 -2.398057 7.514537 22.050581 -2.903485 11.155603 -6.868798 1.641000 -8.074400 -22.940400 31.001385 13.740035 1.480526 3.117451 -4.957086 17.060488 5.855679 -24.978651 -14.238685 -0.003400 0.377600 -1.037500 3.657911 1.850449 4.353633 -5.831464 0.595364 -13.702397 20.385245 -7.969383 11.781646 4.409800 -3.300000 4.682800 -90.529512 7.742237 27.160668 23.903559 -23.272278 -5.821865 1.506525 0.660261 15.897101 -7.125000 0.000000 0.000000 89.539148 -6.357294 36.324181 -22.159439 24.826338 -5.948122 0.763823 -0.531557 17.436374 7.125000 0.000000 0.000000 
10.016006 17.984756 26.843068 -177.450995 -1.448413 -178.766566 -17.007380 -16.239569 -4.785005 -2.405606 7.496166 22.024321 -2.865609 11.069124 -7.025192 1.508800 -7.757800 -21.980700 30.980779 13.796226 1.570974 3.107785 -4.966882 17.107697 5.835690 -24.905736 -14.225317 -0.003300 0.369500 -1.015400 3.576098 1.865027 4.376938 -5.822491 0.601437 -13.719590 20.357100 -8.096266 12.054386 4.399600 -3.342500 4.776400 -90.498217 7.681545 27.203027 23.871210 -23.249069 -5.823049 1.513391 0.663146 15.883539 -7.125000 0.000000 0.000000 89.437867 -6.425914 36.754446 -22.129725 24.795974 -5.949052 0.767879 -0.528289 17.334525 7.125000 0.000000 0.000000 
10.016238 17.982786 26.837390 -177.461626 -1.294489 -178.795136 -17.051427 -16.155799 -4.713633 -2.412900 7.479794 21.990507 -2.923533 11.227755 -7.036922 1.595800 -7.967900 -22.616600 30.983908 13.883413 1.635927 3.106777 -4.967585 17.115389 5.829184 -24.885272 -14.231803 -0.006200 0.506600 -1.391900 3.620180 1.865392 4.345440 -5.801280 0.602916 -13.733649 20.368668 -8.121806 12.189634 4.411600 -3.346600 4.816100 -90.521868 7.577012 27.253586 23.864119 -23.244836 -5.825783 1.501020 0.679234 15.838473 -7.125000 0.000000 0.000000 89.296742 -6.512146 37.161802 -22.116198 24.782635 -5.955331 0.770234 -0.527865 17.288837 7.125000 0.000000 0.000000 
10.017976 17.983133 26.833450 -177.478034 -1.201759 -178.743629 -17.067917 -16.092588 -4.733431 -2.423296 7.473175 21.955994 -3.046465 11.563547 -7.040829 1.795200 -8.425800 -24.015100 30.979061 13.974243 1.639421 3.111225 -4.962981 17.097561 5.811698 -24.832400 -14.252769 -0.006400 0.516500 -1.419300 3.578260 1.839454 4.232298 -5.772216 0.588387 -13.729809 20.352858 -8.142663 12.403485 4.407100 -3.340000 4.881600 -90.455378 7.470687 27.501292 23.881867 -23.252953 -5.825222 1.484004 0.689759 15.660841 -7.125000 0.000000 0.000000 89.259355 -6.531511 37.312464 -22.088327 24.753426 -5.951395 0.773594 -0.525564 17.311049 7.125000 0.000000 0.000000 
10.020062 17.985567 26.829163 -177.497285 -1.083613 -178.642030 -17.038439 -16.087210 -4.776234 -2.430197 7.471005 21.940248 -2.993827 11.434370 -7.175417 1.611100 -8.004000 -22.726400 30.971189 14.096134 1.613128 3.117737 -4.961420 17.076321 5.806115 -24.819829 -14.277050 -0.006200 0.509200 -1.399300 3.426789 1.811256 3.960900 -5.750732 0.563413 -13.733425 20.307791 -8.221398 12.819264 4.384500 -3.346100 5.007300 -90.323890 7.493863 27.796026 23.951383 -23.323964 -5.853392 1.478129 0.687397 15.404514 -7.125000 0.000000 0.000000 89.308676 -6.582536 37.383527 -22.033198 24.686347 -5.925282 0.780114 -0.522934 17.311371 7.125000 0.000000 0.000000 
10.021336 17.987652 26.824760 -177.541233 -0.913138 -178.582520 -17.071301 -15.988596 -4.803493 -2.431504 7.471708 21.941054 -2.941843 11.303984 -7.241464 1.496500 -7.727300 -21.888900 30.921959 14.198089 1.609673 3.120423 -4.957912 17.051812 5.817024 -24.834352 -14.187455 -0.009500 0.627900 -1.725600 3.364419 1.789314 3.684422 -5.706268 0.547058 -13.762800 20.237604 -8.289626 13.220362 4.361100 -3.353000 5.117900 -90.332200 7.507193 27.649713 23.962670 -23.347381 -5.869789 1.483513 0.687967 15.424967 -7.125000 0.000000 0.000000 89.297596 -6.676333 37.520499 -21.982361 24.627948 -5.909263 0.784455 -0.520666 17.317784 7.125000 0.000000 0.000000 
10.020177 17.987189 26.819429 -177.564364 -0.698654 -178.596921 -17.133310 -15.824911 -4.798300 -2.430817 7.477700 21.953920 -3.043035 11.581557 -7.222383 1.702200 -8.216100 -23.372400 30.893874 14.210954 1.663950 3.118712 -4.946291 17.032907 5.779459 -24.689446 -14.082578 -0.009200 0.618700 -1.700100 3.333719 1.817423 3.542032 -5.703675 0.553672 -13.804579 20.055256 -8.326855 13.452451 4.301300 -3.361300 5.173700 -90.387263 7.429074 27.387431 23.910242 -23.290331 -5.842410 1.484674 0.689674 15.636176 -7.125000 0.000000 0.000000 89.294375 -6.762558 37.545857 -21.948114 24.593664 -5.907628 0.786095 -0.516751 17.325182 7.125000 0.000000 0.000000 
10.019135 17.984640 26.812361 -177.558021 -0.540904 -178.706127 -17.161400 -15.817938 -4.674775 -2.428570 7.479916 21.983091 -3.074398 11.679554 -7.361064 1.691100 -8.190500 -23.294300 30.929743 14.223328 1.820838 3.118250 -4.929107 17.031276 5.728252 -24.538873 -14.175621 -0.006300 0.510800 -1.403600 3.312866 1.804029 3.730086 -5.713157 0.546610 -13.838191 19.805872 -8.331902 13.615449 4.218100 -3.353700 5.237200 -90.436764 7.241703 27.192331 23.915583 -23.301460 -5.831909 1.488963 0.677045 15.814914 -7.125000 0.000000 0.000000 89.277042 -6.723182 37.567636 -21.898876 24.536902 -5.887772 0.788472 -0.516779 17.318140 7.125000 0.000000 0.000000 
10.020641 17.982206 26.804366 -177.550165 -0.436292 -178.846814 -17.193276 -15.851213 -4.514389 -2.426844 7.478552 22.016393 -3.072133 11.693772 -7.592280 1.597500 -7.971800 -22.628400 30.974232 14.228561 1.993484 3.116498 -4.914938 17.038628 5.705285 -24.480616 -14.268674 -0.006400 0.515000 -1.415100 3.408820 1.735836 4.079555 -5.660452 0.526152 -13.873417 19.588642 -8.344524 13.917680 4.148400 -3.333200 5.369700 -90.516803 6.965084 26.923507 23.956416 -23.372605 -5.855335 1.499104 0.665406 15.948431 -7.125000 0.000000 0.000000 89.185167 -6.594150 37.688612 -21.859271 24.493994 -5.869576 0.789547 -0.518803 17.165746 7.125000 0.000000 0.000000 
10.021916 17.980005 26.794748 -177.487214 -0.262709 -178.908668 -17.175879 -15.763978 -4.463632 -2.424341 7.482583 22.042596 -3.148916 11.909176 -7.690311 1.723100 -8.263800 -23.518200 31.047338 14.164525 2.067971 3.110834 -4.905132 17.029778 5.669541 -24.340065 -14.090097 -0.008700 0.600900 -1.651300 3.514769 1.732588 4.204323 -5.641037 0.524765 -13.869832 19.373988 -8.361780 14.207357 4.071300 -3.319900 5.474400 -90.522195 6.739686 26.833722 23.977890 -23.397906 -5.854657 1.498084 0.659803 15.838915 -7.125000 0.000000 0.000000 89.142943 -6.574582 37.790882 -21.810407 24.432540 -5.845021 0.789814 -0.523056 17.113345 7.125000 0.000000 0.000000 
10.021336 17.977571 26.784551 -177.421334 0.013213 -178.973263 -17.169616 -15.647771 -4.431746 -2.410657 7.509201 22.130016 -3.232318 12.146866 -7.800531 1.883800 -8.619700 -24.612900 31.118106 14.101206 2.133084 3.098971 -4.900882 17.028967 5.638468 -24.182965 -13.732023 -0.016900 0.838300 -2.304000 3.520358 1.792675 4.297903 -5.674229 0.547983 -13.820576 19.195232 -8.336687 14.271871 4.002300 -3.306900 5.484300 -90.497204 6.562843 26.791908 24.020478 -23.426275 -5.834988 1.499866 0.632177 15.565220 -7.125000 0.000000 0.000000 89.162168 -6.631261 37.817169 -21.765918 24.362087 -5.809283 0.790543 -0.533595 17.390688 7.125000 0.000000 0.000000 
10.020525 17.976876 26.774818 -177.431567 0.283981 -179.053012 -17.236487 -15.660025 -4.303662 -2.403791 7.532125 22.216264 -3.282523 12.318193 -8.095467 1.866000 -8.581300 -24.494000 31.134076 14.155758 2.258885 3.090372 -4.894343 17.024427 5.659991 -24.201220 -13.436839 -0.028500 1.089900 -2.996200 3.436552 1.850006 4.397917 -5.696253 0.576474 -13.777081 19.167648 -8.249235 14.174577 3.993900 -3.275200 5.432000 -90.524890 6.418297 26.563002 24.080632 -23.490318 -5.831395 1.515648 0.588925 15.425736 -7.125000 0.000000 0.000000 89.205519 -6.693611 37.756276 -21.753644 24.331769 -5.788428 0.790390 -0.542049 17.645328 7.125000 0.000000 0.000000 
10.052274 17.984871 26.841098 -177.410500 -0.841583 -178.567052 -16.844279 -15.903099 -5.015750 -2.390870 7.562303 22.153787 -3.075168 11.653536 -7.181568 1.870000 -8.589900 -24.520600 31.203220 14.116098 1.616546 3.120679 -4.952420 17.005052 5.849353 -24.918528 -13.786730 -0.015500 0.805100 -2.212800 3.544020 1.373844 3.073292 -5.432131 0.343612 -14.276432 19.142854 -8.198196 14.298051 4.003100 -3.251900 5.398800 -90.523701 6.457008 26.466843 24.199281 -23.634085 -5.869744 1.516229 0.554657 15.174295 -7.125000 0.000000 0.000000 89.249409 -6.866816 37.670892 -21.716959 24.313360 -5.778161 0.780394 -0.539926 17.667636 7.125000 0.000000 0.000000 
